# xmcd CD database file
#
# Track frame offsets:
#	150
#	16130
#	33517
#	47402
#	55655
#	68727
#	74340
#	79495
#	94225
#	107922
#	120365
#	135857
#	149657
#	164135
#	166752
#	182185
#	195075
#	210502
#	220090
#	229652
#	245732
#	262247
#
# Disc length: 3713 seconds
#
# Revision: 2
# Processed by: cddbd v1.5.1PL0 Copyright (c) Steve Scherf et al.
# Submitted via: CDex 1.51
#
DISCID=3a0e7f16
DTITLE=Waters, Muddy - The Complete Plantation Recordings
DYEAR=1942
DGENRE=Blues
TTITLE0=Country Blues
TTITLE1=Interview 1
TTITLE2=I Be's Troubled
TTITLE3=Interview 2
TTITLE4=Burr Clover Farm Blues
TTITLE5=Interview 3
TTITLE6=Ramblin' Kid Blues
TTITLE7=Ramblin' Kid Blues
TTITLE8=Rasalie
TTITLE9=Joe Turner
TTITLE10=Pearlie May Blues
TTITLE11=Take a Walk With Me
TTITLE12=Burr Clover Blues
TTITLE13=Interview 4
TTITLE14=I Be Bound To Write To You
TTITLE15=I Be Bound To Write To You
TTITLE16=You're Gonna Miss Me When I'm Gone
TTITLE17=You Got To Take Sick And
TTITLE18=Why Don't You Live So God
TTITLE19=Country Blues
TTITLE20=You're Gonna Miss Me When I'm Gone
TTITLE21=32-20 Blues
EXTD=YEAR: 1942
EXTT0=
EXTT1=
EXTT2=
EXTT3=
EXTT4=
EXTT5=
EXTT6=
EXTT7=
EXTT8=
EXTT9=
EXTT10=
EXTT11=
EXTT12=
EXTT13=
EXTT14=
EXTT15=
EXTT16=
EXTT17=
EXTT18=
EXTT19=
EXTT20=
EXTT21=
PLAYORDER=
